<svg width="319" height="115" viewBox="0 0 319 115" fill="none" xmlns="http://www.w3.org/2000/svg">
<path d="M3.26 43.5031V1.50305H9.62V19.5031H29.96V1.50305H36.32V43.5031H29.96V24.7231H9.62V43.5031H3.26ZM56.7416 44.2231C53.8216 44.2231 51.2216 43.5831 48.9416 42.3031C46.7016 40.9831 44.9416 39.1631 43.6616 36.8431C42.3816 34.5231 41.7416 31.8231 41.7416 28.7431C41.7416 25.6231 42.3616 22.8831 43.6016 20.5231C44.8816 18.1631 46.6416 16.3231 48.8816 15.0031C51.1616 13.6831 53.8016 13.0231 56.8016 13.0231C59.7216 13.0231 62.2616 13.6831 64.4216 15.0031C66.5816 16.2831 68.2616 18.0031 69.4616 20.1631C70.6616 22.3231 71.2616 24.7031 71.2616 27.3031C71.2616 27.7031 71.2416 28.1431 71.2016 28.6231C71.2016 29.0631 71.1816 29.5631 71.1416 30.1231H47.9816C48.1816 33.0031 49.1216 35.2031 50.8016 36.7231C52.5216 38.2031 54.5016 38.9431 56.7416 38.9431C58.5416 38.9431 60.0416 38.5431 61.2416 37.7431C62.4816 36.9031 63.4016 35.7831 64.0016 34.3831H70.3616C69.5616 37.1831 67.9616 39.5231 65.5616 41.4031C63.2016 43.2831 60.2616 44.2231 56.7416 44.2231ZM56.7416 18.243C54.6216 18.243 52.7416 18.883 51.1016 20.1631C49.4616 21.4031 48.4616 23.2831 48.1016 25.8031H64.9016C64.7816 23.4831 63.9616 21.6431 62.4416 20.2831C60.9216 18.923 59.0216 18.243 56.7416 18.243ZM76.0606 43.5031V0.30305H82.4206V43.5031H76.0606ZM88.6747 43.5031V0.30305H95.0347V43.5031H88.6747ZM115.209 44.2231C112.369 44.2231 109.809 43.5831 107.529 42.3031C105.289 40.9831 103.509 39.1631 102.189 36.8431C100.869 34.4831 100.209 31.7431 100.209 28.6231C100.209 25.5031 100.869 22.7831 102.189 20.4631C103.549 18.1031 105.369 16.2831 107.649 15.0031C109.929 13.6831 112.469 13.0231 115.269 13.0231C118.109 13.0231 120.649 13.6831 122.889 15.0031C125.169 16.2831 126.969 18.1031 128.289 20.4631C129.649 22.7831 130.329 25.5031 130.329 28.6231C130.329 31.7431 129.649 34.4831 128.289 36.8431C126.969 39.1631 125.169 40.9831 122.889 42.3031C120.609 43.5831 118.049 44.2231 115.209 44.2231ZM115.209 38.7631C116.729 38.7631 118.129 38.3831 119.409 37.6231C120.729 36.8631 121.789 35.7431 122.589 34.2631C123.389 32.7431 123.789 30.8631 123.789 28.6231C123.789 26.3831 123.389 24.5231 122.589 23.0431C121.829 21.5231 120.789 20.3831 119.469 19.623C118.189 18.8631 116.789 18.4831 115.269 18.4831C113.749 18.4831 112.329 18.8631 111.009 19.623C109.729 20.3831 108.689 21.5231 107.889 23.0431C107.089 24.5231 106.689 26.3831 106.689 28.6231C106.689 30.8631 107.089 32.7431 107.889 34.2631C108.689 35.7431 109.729 36.8631 111.009 37.6231C112.289 38.3831 113.689 38.7631 115.209 38.7631ZM131.867 50.5831L135.347 36.4231H141.647L136.127 50.5831H131.867ZM159.41 43.5031V1.50305H165.77V43.5031H159.41ZM170.453 15.603L173.813 1.50305H180.713L174.893 15.603H170.453ZM184.808 43.5031V13.7431H190.448L190.988 17.9431C191.948 16.4231 193.208 15.2231 194.768 14.343C196.368 13.4631 198.208 13.0231 200.288 13.0231C205.008 13.0231 208.288 14.8831 210.128 18.6031C211.208 16.883 212.648 15.5231 214.448 14.5231C216.288 13.5231 218.268 13.0231 220.388 13.0231C224.108 13.0231 227.028 14.1431 229.148 16.3831C231.268 18.6231 232.328 21.9631 232.328 26.4031V43.5031H225.968V27.0631C225.968 21.3031 223.768 18.4231 219.368 18.4231C217.128 18.4231 215.288 19.2631 213.848 20.9431C212.448 22.6231 211.748 25.0231 211.748 28.1431V43.5031H205.388V27.0631C205.388 21.3031 203.168 18.4231 198.728 18.4231C196.528 18.4231 194.708 19.2631 193.268 20.9431C191.868 22.6231 191.168 25.0231 191.168 28.1431V43.5031H184.808ZM0.86 73.603L6.62 59.503H11.06L7.7 73.603H0.86ZM18.9969 114.703L26.1369 99.0431H24.3969L12.6369 71.7431H19.5369L28.6569 93.7631L38.1969 71.7431H44.9169L25.7169 114.703H18.9969ZM59.5705 102.223C56.7305 102.223 54.1705 101.583 51.8905 100.303C49.6505 98.9831 47.8705 97.1631 46.5505 94.8431C45.2305 92.4831 44.5705 89.7431 44.5705 86.6231C44.5705 83.5031 45.2305 80.7831 46.5505 78.4631C47.9105 76.1031 49.7305 74.2831 52.0105 73.0031C54.2905 71.6831 56.8305 71.0231 59.6305 71.0231C62.4705 71.0231 65.0105 71.6831 67.2505 73.0031C69.5305 74.2831 71.3305 76.1031 72.6505 78.4631C74.0105 80.7831 74.6905 83.5031 74.6905 86.6231C74.6905 89.7431 74.0105 92.4831 72.6505 94.8431C71.3305 97.1631 69.5305 98.9831 67.2505 100.303C64.9705 101.583 62.4105 102.223 59.5705 102.223ZM59.5705 96.7631C61.0905 96.7631 62.4905 96.3831 63.7705 95.6231C65.0905 94.8631 66.1505 93.7431 66.9505 92.2631C67.7505 90.7431 68.1505 88.8631 68.1505 86.6231C68.1505 84.3831 67.7505 82.5231 66.9505 81.0431C66.1905 79.5231 65.1505 78.3831 63.8305 77.623C62.5505 76.8631 61.1505 76.4831 59.6305 76.4831C58.1105 76.4831 56.6905 76.8631 55.3705 77.623C54.0905 78.3831 53.0505 79.5231 52.2505 81.0431C51.4505 82.5231 51.0505 84.3831 51.0505 86.6231C51.0505 88.8631 51.4505 90.7431 52.2505 92.2631C53.0505 93.7431 54.0905 94.8631 55.3705 95.6231C56.6505 96.3831 58.0505 96.7631 59.5705 96.7631ZM90.7484 102.223C87.1484 102.223 84.3084 101.103 82.2284 98.8631C80.1884 96.6231 79.1684 93.2831 79.1684 88.8431V71.7431H85.5284V88.1831C85.5284 93.9431 87.8884 96.8231 92.6084 96.8231C94.9684 96.8231 96.9084 95.9831 98.4284 94.3031C99.9484 92.6231 100.708 90.2231 100.708 87.1031V71.7431H107.068V101.503H101.428L100.948 96.2831C100.028 98.1231 98.6684 99.5831 96.8684 100.663C95.1084 101.703 93.0684 102.223 90.7484 102.223ZM113.359 101.503V71.7431H119.059L119.599 77.3831C120.639 75.4231 122.079 73.883 123.919 72.763C125.799 71.6031 128.059 71.0231 130.699 71.0231V77.6831H128.959C127.199 77.6831 125.619 77.9831 124.219 78.5831C122.859 79.143 121.759 80.1231 120.919 81.5231C120.119 82.8831 119.719 84.7831 119.719 87.2231V101.503H113.359ZM147.669 101.503V71.7431H153.309L153.789 76.9631C154.709 75.1231 156.049 73.6831 157.809 72.643C159.609 71.5631 161.669 71.0231 163.989 71.0231C167.589 71.0231 170.409 72.1431 172.449 74.3831C174.529 76.6231 175.569 79.9631 175.569 84.4031V101.503H169.269V85.0631C169.269 79.3031 166.909 76.4231 162.189 76.4231C159.829 76.4231 157.869 77.2631 156.309 78.9431C154.789 80.6231 154.029 83.0231 154.029 86.1431V101.503H147.669ZM191.34 102.223C188.82 102.223 186.74 101.803 185.1 100.963C183.46 100.123 182.24 99.0231 181.44 97.6631C180.64 96.2631 180.24 94.7431 180.24 93.1031C180.24 90.2231 181.36 87.9431 183.6 86.2631C185.84 84.5831 189.04 83.7431 193.2 83.7431H201V83.2031C201 80.8831 200.36 79.1431 199.08 77.9831C197.84 76.8231 196.22 76.243 194.22 76.243C192.46 76.243 190.92 76.6831 189.6 77.5631C188.32 78.4031 187.54 79.6631 187.26 81.3431H180.9C181.1 79.1831 181.82 77.3431 183.06 75.823C184.34 74.2631 185.94 73.0831 187.86 72.2831C189.82 71.4431 191.96 71.0231 194.28 71.0231C198.44 71.0231 201.66 72.1231 203.94 74.3231C206.22 76.4831 207.36 79.4431 207.36 83.2031V101.503H201.84L201.3 96.4031C200.46 98.0431 199.24 99.4231 197.64 100.543C196.04 101.663 193.94 102.223 191.34 102.223ZM192.6 97.0631C194.32 97.0631 195.76 96.6631 196.92 95.8631C198.12 95.0231 199.04 93.9231 199.68 92.5631C200.36 91.2031 200.78 89.7031 200.94 88.0631H193.86C191.34 88.0631 189.54 88.5031 188.46 89.3831C187.42 90.2631 186.9 91.3631 186.9 92.6831C186.9 94.0431 187.4 95.1231 188.4 95.9231C189.44 96.6831 190.84 97.0631 192.6 97.0631ZM212.975 101.503V71.7431H218.615L219.155 75.9431C220.115 74.4231 221.375 73.2231 222.935 72.343C224.535 71.4631 226.375 71.0231 228.455 71.0231C233.175 71.0231 236.455 72.8831 238.295 76.6031C239.375 74.883 240.815 73.5231 242.615 72.5231C244.455 71.5231 246.435 71.0231 248.555 71.0231C252.275 71.0231 255.195 72.1431 257.315 74.3831C259.435 76.6231 260.495 79.9631 260.495 84.4031V101.503H254.135V85.0631C254.135 79.3031 251.935 76.4231 247.535 76.4231C245.295 76.4231 243.455 77.2631 242.015 78.9431C240.615 80.6231 239.915 83.0231 239.915 86.1431V101.503H233.555V85.0631C233.555 79.3031 231.335 76.4231 226.895 76.4231C224.695 76.4231 222.875 77.2631 221.435 78.9431C220.035 80.6231 219.335 83.0231 219.335 86.1431V101.503H212.975ZM280.056 102.223C277.136 102.223 274.536 101.583 272.256 100.303C270.016 98.9831 268.256 97.1631 266.976 94.8431C265.696 92.5231 265.056 89.8231 265.056 86.7431C265.056 83.6231 265.676 80.8831 266.916 78.5231C268.196 76.1631 269.956 74.3231 272.196 73.0031C274.476 71.6831 277.116 71.0231 280.116 71.0231C283.036 71.0231 285.576 71.6831 287.736 73.0031C289.896 74.2831 291.576 76.0031 292.776 78.1631C293.976 80.3231 294.576 82.7031 294.576 85.3031C294.576 85.7031 294.556 86.1431 294.516 86.6231C294.516 87.0631 294.496 87.5631 294.456 88.1231H271.296C271.496 91.0031 272.436 93.2031 274.116 94.7231C275.836 96.2031 277.816 96.9431 280.056 96.9431C281.856 96.9431 283.356 96.5431 284.556 95.7431C285.796 94.9031 286.716 93.7831 287.316 92.3831H293.676C292.876 95.1831 291.276 97.5231 288.876 99.4031C286.516 101.283 283.576 102.223 280.056 102.223ZM280.056 76.243C277.936 76.243 276.056 76.883 274.416 78.1631C272.776 79.4031 271.776 81.2831 271.416 83.8031H288.216C288.096 81.4831 287.276 79.6431 285.756 78.2831C284.236 76.923 282.336 76.243 280.056 76.243ZM297.575 73.603L300.935 59.503H307.835L302.015 73.603H297.575ZM314.451 101.863C313.251 101.863 312.251 101.483 311.451 100.723C310.691 99.9231 310.311 98.9831 310.311 97.9031C310.311 96.7831 310.691 95.8431 311.451 95.0831C312.251 94.2831 313.251 93.8831 314.451 93.8831C315.651 93.8831 316.631 94.2831 317.391 95.0831C318.151 95.8431 318.531 96.7831 318.531 97.9031C318.531 98.9831 318.151 99.9231 317.391 100.723C316.631 101.483 315.651 101.863 314.451 101.863Z" fill="#181717"/>
</svg>
